PathFileType	4	(X/Y/Z)	C:\Users\Basilio\Documents\Thesis Gigler\squatting_fais\c3dfiles\075\SLS_back_pre1\markers_experimental.trc
DataRate	CameraRate	NumFrames	NumMarkers	Units	OrigDataRate	OrigDataStartFrame	OrigNumFrames
200.000000	200.000000	4	61	mm	200.000000	0	1357
Frame#	Time	FHD			LBHD			C7			T10			CLAV			LSHO			LUUPA			LMUPA			LDUPA			LLEP			LMEP			LRAD			LUL			LRFIN			RSHO			RUPA1			RMUPA			RDUPA			RLEP			RMEP			RRAD			RUL			RUFIN			LASI			RASI			USACR			LSACR			RSACR			LTHI1			LTHI2			LTHI3			LTHI4			LLFC			LMFC			LTIB1			LTIB2			LTIB3			LTIB4			LLMAL			LMMAL			LHEE			LMT1			LMT2			LMT5			RTHI			RTHI2			RTHI3			RTHI4			RLFC			RMFC			RTIB1			RTIB2			RTIB3			RTIB4			RLMAL			RMMAL			RHEE			RMT1			RMT2			RMT5			RBHD			
		X1	Y1	Z1	X2	Y2	Z2	X3	Y3	Z3	X4	Y4	Z4	X5	Y5	Z5	X6	Y6	Z6	X7	Y7	Z7	X8	Y8	Z8	X9	Y9	Z9	X10	Y10	Z10	X11	Y11	Z11	X12	Y12	Z12	X13	Y13	Z13	X14	Y14	Z14	X15	Y15	Z15	X16	Y16	Z16	X17	Y17	Z17	X18	Y18	Z18	X19	Y19	Z19	X20	Y20	Z20	X21	Y21	Z21	X22	Y22	Z22	X23	Y23	Z23	X24	Y24	Z24	X25	Y25	Z25	X26	Y26	Z26	X27	Y27	Z27	X28	Y28	Z28	X29	Y29	Z29	X30	Y30	Z30	X31	Y31	Z31	X32	Y32	Z32	X33	Y33	Z33	X34	Y34	Z34	X35	Y35	Z35	X36	Y36	Z36	X37	Y37	Z37	X38	Y38	Z38	X39	Y39	Z39	X40	Y40	Z40	X41	Y41	Z41	X42	Y42	Z42	X43	Y43	Z43	X44	Y44	Z44	X45	Y45	Z45	X46	Y46	Z46	X47	Y47	Z47	X48	Y48	Z48	X49	Y49	Z49	X50	Y50	Z50	X51	Y51	Z51	X52	Y52	Z52	X53	Y53	Z53	X54	Y54	Z54	X55	Y55	Z55	X56	Y56	Z56	X57	Y57	Z57	X58	Y58	Z58	X59	Y59	Z59	X60	Y60	Z60	X61	Y61	Z61	

1	0	-284.6901855468751	1724.587768554688	-813.620788574219	-415.8379211425782	1593.969360351563	-886.6557617187502	-448.0031127929689	1477.55224609375	-832.6818847656252	-449.2420654296876	1154.002197265625	-836.8413696289065	-297.5143432617188	1427.1962890625	-821.4973144531252	-321.1804199218751	1457.479614257813	-984.725524902344	-299.1572875976563	1249.810302734375	-1092.755737304688	-263.2025756835938	1232.671875	-1064.015502929688	-277.2069396972657	1183.586791992188	-1097.583129882813	-247.7808380126954	1103.471557617188	-1087.873291015625	-326.5533142089844	1088.515747070313	-1043.255859375	-171.7191619873047	1003.549682617188	-865.9648437500002	-141.4386749267578	953.8777465820315	-913.9918212890627	-113.2682189941407	983.2932739257815	-816.9979248046877	-348.3487854003907	1442.936279296875	-661.2340087890626	-358.9390258789063	1239.669555664063	-547.8391113281251	-318.4025573730469	1215.674438476563	-563.2777709960939	-347.2140197753907	1171.291015625	-532.7181396484376	-324.1335449218751	1103.370361328125	-530.5255737304689	-382.0429992675782	1067.256469726563	-580.9353027343751	-166.6480865478516	1020.31982421875	-745.2324218750001	-156.6729431152344	979.2388916015627	-680.6961059570314	-92.51450347900392	985.2014770507815	-779.4143066406252	-283.9897460937501	986.083923339844	-964.289978027344	-275.5522766113282	996.6643676757815	-711.2457275390626	-438.2796020507814	1054.752563476563	-837.270690917969	-445.1433410644532	1022.957824707031	-863.529724121094	-443.244598388672	1025.150634765625	-806.5612792968752	-315.0235290527344	742.8891601562501	-1041.930541992188	-277.8603820800782	666.9040527343751	-1044.340576171875	-232.3240509033204	675.3013916015626	-1026.454467773438	-300.7632446289063	611.5415649414064	-1037.6953125	-297.2709350585938	505.1096801757814	-1033.658569335938	-258.9273376464844	485.5522460937501	-908.8892822265627	-252.3078308105469	378.4523620605469	-1002.913940429688	-312.4022827148438	347.1564025878907	-1056.5634765625	-274.2790527343751	335.7816772460938	-1034.794189453125	-288.8987426757813	255.7823028564454	-1009.553955078125	-377.2799072265626	126.1414947509766	-1036.43017578125	-352.5431823730469	133.9856262207032	-953.865661621094	-438.0548706054689	97.13743591308597	-999.4317016601565	-238.2228088378907	51.1986770629883	-960.3452758789065	-229.3483581542969	56.25532150268556	-1008.156616210938	-266.4866027832032	44.24967956542969	-1063.138549804688	-331.4208679199219	789.960632324219	-651.2775878906251	-292.6691894531251	737.8688964843751	-658.7506103515626	-261.9591064453126	744.8358154296876	-670.4169921875001	-319.9415283203126	657.1531982421876	-672.7172241210939	-335.4519958496094	504.0460510253907	-709.2415771484376	-304.3772277832032	502.8205871582032	-835.210388183594	-292.7105102539063	359.0694580078126	-784.8704833984377	-342.6220397949219	280.0341796875001	-728.1682739257814	-308.2614440917969	275.3993835449219	-762.4959716796876	-321.5748291015626	233.1571655273438	-800.440856933594	-393.2579956054689	115.8852844238282	-768.7554931640627	-366.0446472167969	140.7391815185547	-847.5970458984377	-450.8135986328126	98.40999603271487	-824.237976074219	-245.8854522705079	58.34407806396486	-836.4781494140627	-246.4266815185547	55.33095169067384	-794.2761230468752	-283.9745483398438	35.17580795288087	-741.9482421875001	nan	nan	nan	
2	0.005	-284.7076110839844	1724.637817382813	-813.8726806640627	-415.6517333984376	1593.91455078125	-886.8169555664065	-447.9261169433595	1477.549560546875	-832.6884765625002	-449.2669982910157	1154.059692382813	-836.7514648437502	-297.5708618164063	1427.116088867188	-821.5927734375002	-321.1888732910157	1457.3095703125	-984.8292236328127	-299.4202270507813	1249.536499023438	-1092.734497070313	-263.4913940429688	1232.360229492188	-1064.011596679688	-277.6203308105469	1183.2705078125	-1097.556518554688	-248.2158508300782	1103.149658203125	-1087.80419921875	-326.9590759277344	1088.315185546875	-1043.177124023438	-172.1127319335938	1003.218933105469	-865.9698486328127	-141.87939453125	953.5274658203127	-913.9429931640627	-113.6918487548828	983.0715942382815	-816.985778808594	-348.3093872070313	1443.036499023438	-661.2962646484376	-359.0395507812501	1239.774169921875	-547.9002075195314	-318.5005798339844	1215.752685546875	-563.2713012695314	-347.4147949218751	1171.376342773438	-532.7640991210939	-324.3917541503907	1103.41455078125	-530.5980834960939	-382.3297119140626	1067.468627929688	-580.9855346679689	-166.9564666748047	1020.177062988281	-745.2423706054689	-157.0776519775391	979.116149902344	-680.7880249023439	-92.92424774169923	984.9174804687502	-779.4351196289065	-283.9135131835938	986.2578735351565	-964.1965942382815	-275.4955139160157	996.679138183594	-711.1650390625001	-438.2041015625001	1054.73828125	-837.147155761719	-445.0489196777345	1022.965942382813	-863.4624633789065	-443.2273864746095	1025.12890625	-806.5021972656252	-314.9570617675782	742.9844360351564	-1041.914428710938	-277.8810424804688	666.9299316406251	-1044.273803710938	-232.3149108886719	675.3356323242189	-1026.3232421875	-300.8064880371094	611.6002197265626	-1037.597412109375	-297.4008178710938	505.1648864746095	-1033.582763671875	-259.1295471191407	485.5496215820314	-908.7974853515627	-252.2812652587891	378.4928894042969	-1003.232177734375	-312.8491516113282	347.9631042480469	-1056.253784179688	-273.7511901855469	336.3863830566407	-1034.94970703125	-288.9760437011719	255.7752685546876	-1009.518188476563	-377.2432556152344	126.0994186401367	-1036.420532226563	-352.5268859863282	133.9717712402344	-953.8399047851565	-438.0290832519532	97.15508270263675	-999.4273071289065	-238.3856353759766	51.15832138061525	-960.4251708984377	-229.9210815429688	56.57759475708009	-1008.419555664063	-266.4686584472657	44.27682495117188	-1063.128784179688	-331.3316040039063	789.952819824219	-651.1679687500001	-292.5901489257813	737.8604736328126	-658.6975708007814	-261.8766174316407	744.8460693359376	-670.3649902343751	-319.8829650878907	657.1310424804689	-672.6899414062501	-335.3769836425782	504.0596008300782	-709.2086791992189	-304.3323974609376	502.8545227050782	-835.162292480469	-292.1043701171876	359.0132446289063	-784.4129028320315	-342.6183166503907	280.0350036621094	-728.1710205078126	-308.2840576171876	275.3839111328126	-762.4756469726564	-321.5377807617188	233.2003021240235	-800.4290161132815	-393.2087707519532	115.8879928588867	-768.7907714843752	-366.0724182128907	140.7857818603516	-847.6125488281252	-450.8275451660157	98.40737915039065	-824.277526855469	-245.8815002441407	58.31533432006837	-836.5015258789065	-246.4364166259766	55.35371017456056	-794.2447509765627	-284.0031738281251	35.17142486572266	-741.9580078125001	nan	nan	nan	
3	0.01	-284.7151489257813	1724.744140625	-814.1680297851565	-415.6204528808595	1593.915771484375	-887.049743652344	-447.8236389160157	1477.602294921875	-832.781188964844	-449.239959716797	1154.065185546875	-836.6956787109377	-297.6087036132813	1427.04931640625	-821.6484985351565	-321.1940002441407	1457.11083984375	-984.9158325195315	-299.7232055664063	1249.2646484375	-1092.780883789063	-262.9784240722657	1231.869506835938	-1063.490478515625	-277.8625183105469	1182.9140625	-1097.56201171875	-248.6126403808594	1102.841918945313	-1087.781005859375	-327.3450012207032	1088.090087890625	-1043.148193359375	-172.4787139892578	1002.923278808594	-865.942810058594	-142.3352661132813	953.1878051757815	-913.9075927734377	-114.4476394653321	982.8674926757815	-817.2910156250002	-348.2388610839844	1443.115844726563	-661.3474731445314	-359.1004943847657	1239.886352539063	-547.9067382812501	-318.6163330078126	1215.8115234375	-563.2632446289064	-347.5566711425782	1171.5	-532.7872924804689	-324.6239318847657	1103.477783203125	-530.5994262695314	-382.6181640625001	1067.566284179688	-581.1051635742189	-167.3255767822266	1020.0244140625	-745.2940063476564	-157.45458984375	979.015075683594	-680.8214721679689	-93.42433166503908	984.6482543945315	-779.387878417969	-283.8828430175782	986.3504028320315	-964.1342773437502	-275.4182434082032	996.6668701171877	-711.1384887695314	-438.148406982422	1054.753662109375	-837.109313964844	-444.9619750976564	1022.986938476563	-863.3733520507815	-443.1005249023439	1025.116943359375	-806.438659667969	-314.9059143066407	743.0241699218751	-1041.84716796875	-277.8666381835938	666.9817504882814	-1044.173950195313	-232.2884979248047	675.3570556640626	-1026.225341796875	-300.8454284667969	611.6989135742189	-1037.453857421875	-297.6060485839844	505.2133789062501	-1033.462524414063	-259.2658691406251	485.5861816406251	-908.7129516601565	-252.3981170654297	378.5594482421876	-1003.234497070313	-312.8851013183594	348.0103759765626	-1056.2216796875	-273.8564453125001	336.4286804199219	-1034.882568359375	-289.0618286132813	255.798080444336	-1009.477355957031	-377.2947692871094	126.1154861450196	-1036.398315429688	-352.5405578613282	133.9708862304688	-953.862487792969	-438.0907592773439	97.16349029541018	-999.4410400390627	-237.4554748535157	51.21472930908205	-960.038269042969	-229.354476928711	56.25362396240236	-1008.158386230469	-266.4822998046876	44.26996231079102	-1063.135009765625	-331.2323608398438	789.955261230469	-651.1365966796876	-292.5063476562501	737.8474121093751	-658.6610107421876	-261.7882080078126	744.8184204101564	-670.3247680664064	-319.7950134277344	657.1436767578126	-672.6353759765626	-335.3708496093751	504.0498352050782	-709.1743774414064	-304.2308654785157	502.8505249023439	-835.1772460937502	-292.6651611328126	359.0979309082032	-784.8777465820315	-342.6173400878907	280.0731201171876	-728.1827392578126	-308.2883300781251	275.3720092773438	-762.4831542968751	-322.2565307617188	233.2523193359376	-800.8865966796877	-393.2424926757814	115.8843002319336	-768.819519042969	-366.0860595703126	140.7713012695313	-847.6255493164065	-450.815887451172	98.41003417968753	-824.322204589844	-245.9200439453126	58.33422470092775	-836.5179443359377	-246.4164428710938	55.34033584594728	-794.2718505859377	-283.9733276367188	35.15400695800782	-741.9708862304689	nan	nan	nan	
4	0.015	-284.7232360839844	1724.765014648438	-814.4122314453127	-415.5769348144532	1593.928466796875	-887.2614746093752	-447.7474975585939	1477.659790039063	-832.8397216796877	-449.1848144531251	1154.09814453125	-836.6197509765627	-297.5997314453126	1426.96728515625	-821.7377929687502	-321.2454833984376	1456.887573242188	-985.030212402344	-299.9297485351563	1248.987915039063	-1092.8486328125	-263.2709655761719	1231.58740234375	-1063.546264648438	-278.2392883300782	1182.636474609375	-1097.580932617188	-249.1095428466797	1102.530151367188	-1087.792846679688	-327.6765747070313	1087.907470703125	-1043.069213867188	-172.8788604736328	1002.626647949219	-865.8220214843752	-142.8567504882813	952.8074340820315	-913.900573730469	-114.8375625610352	982.6752929687502	-817.442810058594	-348.1337585449219	1443.20166015625	-661.4450073242189	-359.1610107421876	1240.014038085938	-547.9386596679689	-318.7341003417969	1215.88330078125	-563.3206176757814	-347.7164001464844	1171.594360351563	-532.8367309570314	-324.8817749023438	1103.535766601563	-530.6457519531251	-382.8645629882813	1067.755737304688	-581.1608276367189	-167.6324310302735	1019.906066894531	-745.2964477539064	-157.8611602783203	978.8881835937502	-680.8640136718751	-93.82532501220705	984.3961181640627	-779.333435058594	-283.7013854980469	986.442321777344	-964.1215820312502	-275.4677429199219	996.6773681640627	-710.9691162109376	-438.0241699218751	1054.734252929688	-836.9873657226565	-444.8994750976564	1022.991149902344	-863.3027954101565	-443.0124816894532	1025.079956054688	-806.3879394531252	-315.8631591796876	743.3107299804689	-1041.993774414063	-277.8487854003907	667.0139770507814	-1044.109619140625	-232.2977142333985	675.3556518554689	-1026.14697265625	-300.8791198730469	611.7675170898439	-1037.395141601563	-297.7362670898438	505.2263793945314	-1033.396606445313	-259.4645996093751	485.6168823242189	-908.6397094726565	-252.5350646972657	378.5950622558594	-1003.199584960938	-313.1297912597657	347.4572448730469	-1056.118530273438	-274.7002868652344	335.9125976562501	-1034.6416015625	-289.1424560546876	255.8172912597657	-1009.437927246094	-377.3023071289063	126.1065063476563	-1036.394897460938	-352.5867614746094	133.9591217041016	-953.8405761718752	-438.086639404297	97.14854431152347	-999.426940917969	-238.5306701660157	51.02828598022462	-960.5594482421877	-229.869857788086	56.60231781005861	-1008.374145507813	-266.4900207519532	44.28792190551759	-1063.136108398438	-331.1229553222657	789.964782714844	-651.1016845703126	-292.4210510253907	737.8455810546876	-658.6111450195314	-261.7090759277344	744.8200683593751	-670.3638916015626	-319.7537841796876	657.1520996093751	-672.6040039062501	-335.3676147460938	504.0618286132814	-709.1924438476564	-304.2930297851563	502.8531494140626	-835.172790527344	-292.6353454589844	359.1103515625001	-784.850524902344	-342.6398925781251	280.0519104003907	-728.1359863281251	-308.2563476562501	275.4159240722657	-762.4616699218751	-322.2512817382813	233.2366790771485	-800.9117431640627	-393.2461547851564	115.9271392822266	-768.7783813476565	-366.0362548828126	140.7862396240235	-847.5989990234377	-450.815887451172	98.41003417968753	-824.322204589844	-245.8920593261719	58.28825759887697	-836.4707641601565	-246.4020996093751	55.34461212158205	-794.2496337890627	-283.9800109863282	35.15604400634766	-741.9924316406251	nan	nan	nan	
